<?xml version="1.0" encoding="UTF-8"?> <svg xmlns="http://www.w3.org/2000/svg" id="svg2" version="1.1" viewBox="0 0 1000 1000" xml:space="preserve"><defs id="defs6"><clipPath id="clipPath26"><path id="path24" d="m50.208 552.67c0-36.01 29.194-65.198 65.195-65.198 36.009 0 65.199 29.188 65.199 65.198 0 36.004-29.19 65.195-65.199 65.195-36.001 0-65.195-29.191-65.195-65.195"></path></clipPath></defs><g id="g10" transform="matrix(1.3333 0 0 -1.3333 -2.8016e-6 1e3)"><g id="g1370" transform="matrix(3.6884 0 0 3.6884 -215.46 -4e3)" style="stroke-width:.27112"><circle id="path1309" transform="scale(1,-1)" cx="160.08" cy="-1186.1" r="101.67" style="color:#000000;fill:#fff"></circle><g id="g1307" transform="matrix(1.3923 0 0 1.3923 -63.803 -464.28)" style="stroke-width:.19473"><g id="g20" transform="translate(45.405 633.14)" style="fill:#8eb83b;stroke-width:.19473"><g id="g22" clip-path="url(#clipPath26)" style="fill:#8eb83b;stroke-width:.19473"><g id="g28" transform="translate(151.55 571.27)" style="fill:#8eb83b;stroke-width:.19473"><path id="path30" d="m0 0c-8.556-0.188-16.564-3.655-22.56-9.768-6.009-6.122-9.284-14.218-9.284-22.796l-8e-3 -1.301v-57.513h2.502v57.596c8.09 0.475 15.622 3.893 21.33 9.714 6.009 6.12 9.317 14.215 9.317 22.793v1.306z" style="fill:#8eb83b"></path></g><g id="g32" transform="translate(114.32 593.94)" style="fill:#8eb83b;stroke-width:.19473"><path id="path34" d="m0 0v-37.187c-8.497 10.64-8.497 26.18 0 37.187m2.513-37.044v37.02c8.405-10.613 8.405-26.051 0-37.02m8.887 18.545c0.034 8.605-3.274 16.67-9.303 22.709l-0.904 0.908-0.886-0.923c-5.939-6.202-9.219-14.308-9.254-22.827-0.037-8.431 3.145-16.344 8.947-22.341v-73.078h2.513v73.129c5.694 6.146 8.852 14.084 8.887 22.423" style="fill:#8eb83b"></path></g><g id="g36" transform="translate(106.09 511.72)" style="fill:#8eb83b;stroke-width:.19473"><path id="path38" d="m0 0v0.012l-0.06 1.269c-1.835 16.537-15.837 29.015-32.451 29.015-0.959 0-1.932-0.042-2.893-0.126l-1.3-0.118 0.145-1.296c1.839-16.532 15.752-28.998 32.372-28.998h2e-3c0.556 0 1.118 0.014 1.673 0.048v-31.653l2.512 0.019z" style="fill:#8eb83b"></path></g><g id="g40" transform="translate(91.939 562.92)" style="fill:#8eb83b;stroke-width:.19473"><path id="path42" d="m0 0c-1.101 0-1.99-0.889-1.99-1.992 0-1.098 0.889-1.993 1.99-1.993 1.096 0 1.985 0.895 1.985 1.993 0 1.103-0.889 1.992-1.985 1.992" style="fill:#8eb83b"></path></g><g id="g44" transform="translate(97.534 555.12)" style="fill:#8eb83b;stroke-width:.19473"><path id="path46" d="m0 0c0 2.027 0.458 4.031 1.331 5.859 3.222-2.898 5.822-6.482 7.564-10.501 0.098-0.217 0.186-0.438 0.282-0.651 0.026-0.08 0.056-0.158 0.089-0.229 0.992-2.547 1.647-5.239 1.91-8.001-6.371 1.23-11.176 6.906-11.176 13.523m-13.997 2.538 8.167 8.132c1.836-0.88 3.566-1.946 5.182-3.171-1.213-2.316-1.849-4.887-1.849-7.499 0-6.05 3.4-11.442 8.433-14.235-8.865 2.298-16.191 8.584-19.933 16.773m-2.569 9.689 4.465-4.272-2.906-2.892c-0.809 2.284-1.333 4.683-1.559 7.164m8.247-0.498-2.755-2.748-4.681 4.476c2.589-0.255 5.08-0.848 7.436-1.728m22.244-27.48c-0.173 8.323-3.453 16.142-9.296 22.092-5.986 6.111-13.991 9.578-22.535 9.767l-1.285 0.028v-1.282c8e-3 -8.57 3.315-16.66 9.314-22.778 5.707-5.815 13.232-9.225 21.315-9.709v-57.598h2.503v59.48z" style="fill:#8eb83b"></path></g><g id="g48" transform="translate(141.69 523.78)" style="fill:#8eb83b;stroke-width:.19473"><path id="path50" d="m0 0c0.528 0 1.059-0.027 1.591-0.095 2.034-0.233 3.983-0.92 5.713-2.004-0.045-0.043-0.089-0.084-0.132-0.126-5.613-4.922-12.758-7.568-20.286-7.435 1.771 5.679 7.074 9.66 13.114 9.66m-2.487 9.736c0.438-0.419 0.959-0.754 1.538-0.985 0.567-0.223 1.158-0.333 1.763-0.333 1.977 0 3.733 1.189 4.463 3.024 0.345 0.868 0.424 1.793 0.253 2.69 3.211 1.165 6.667 1.799 10.274 1.805l-6.379-5.229 0.922-1.122 6.427 5.266c-1.069-5.846-3.786-11.053-7.64-15.163-2.16 1.478-4.65 2.408-7.263 2.702-0.616 0.074-1.251 0.11-1.871 0.11-4.704 0-9.024-2.049-12.027-5.363 2.022 5.036 5.344 9.369 9.54 12.598m0.92 4.425c0.388 0.984 1.327 1.625 2.381 1.625 0.307 0 0.614-0.059 0.899-0.162 0.117-0.254 0.117-1.228-0.42-2.589-0.546-1.372-1.211-2.08-1.477-2.185-0.616 0.258-1.092 0.741-1.357 1.347-0.271 0.626-0.286 1.324-0.026 1.964m-12.621-26.4c0.479-0.02 0.959-0.033 1.422-0.033 8.239 0 15.79 3.048 21.545 8.129 0.086 0.079 0.177 0.157 0.269 0.223 0.027 0.03 0.056 0.059 0.08 0.082 0.347 0.311 0.7 0.638 1.036 0.969l1.019 0.999-0.043 0.033c4.631 5.013 7.712 11.52 8.468 18.805l0.131 1.274-1.28 0.104c-0.869 0.07-1.75 0.102-2.627 0.102-1.237 0-2.449-0.077-3.651-0.206-0.427 1.675-1.852 2.987-3.672 3.172-2.363 0.242-4.415-1.468-4.653-3.784-0.024-0.241-0.025-0.475-9e-3 -0.706-0.372 0.303-0.799 0.572-1.256 0.751-0.572 0.224-1.163 0.343-1.777 0.343-1.977 0-3.723-1.195-4.459-3.03-0.394-1.001-0.439-2.077-0.145-3.096-6.988-5.278-11.873-13.367-12.834-22.714l-0.067-1.037v-32.053l2.495 0.019z" style="fill:#8eb83b"></path></g></g></g><g id="g1156" style="fill:#0d603f;stroke-width:.19473"><g id="g52" transform="translate(106.04 1189.6)" style="fill:#0d603f;stroke-width:.19473"><path id="path54" d="m0 0-9.936 1.234 0.182 1.512 8.649-1.072 0.543 4.376 1.299-0.158z" style="fill:#0d603f"></path></g><g id="g64" transform="translate(99.519 1202.9)" style="fill:#0d603f;stroke-width:.19473"><path id="path66" d="m0 0c-0.513-1.78 0.296-4.006 2.68-4.698 2.378-0.686 4.269 0.762 4.783 2.543 0.506 1.746-0.306 4.009-2.695 4.694-2.38 0.691-4.261-0.792-4.768-2.539m8.73-2.522c-0.745-2.565-3.357-4.555-6.481-3.65-3.091 0.893-4.252 3.973-3.514 6.537 0.74 2.566 3.372 4.547 6.461 3.656 3.122-0.903 4.275-3.981 3.534-6.543" style="fill:#0d603f"></path></g><g id="g68" transform="translate(112.52 1211.4)" style="fill:#0d603f;stroke-width:.19473"><path id="path70" d="m0 0-5.954-1.463 4.213-2.074-0.671-1.365-8.988 4.423 0.675 1.366 4.238-2.087-2.495 5.636 0.779 1.579 2.596-5.917 6.429 1.575z" style="fill:#0d603f"></path></g><g id="g72" transform="translate(114.5 1214.7)" style="fill:#0d603f;stroke-width:.19473"><path id="path74" d="m0 0-8.382 5.482 0.835 1.276 8.384-5.485z" style="fill:#0d603f"></path></g><g id="g76" transform="translate(121.61 1223.4)" style="fill:#0d603f;stroke-width:.19473"><path id="path78" d="m0 0c-0.751-0.773-1.679-1.246-2.293-1.372l-1.427 0.92c1.15 0.209 2.082 0.661 2.841 1.432 0.781 0.793 0.848 1.761 0.192 2.411-0.623 0.605-1.407 0.634-2.537 0.048-1.666-0.871-3.042-0.839-4.025 0.132-1 0.978-1.218 2.654 0.271 4.175 0.696 0.706 1.5 1.078 1.949 1.149l0.686-1.095c-0.425-0.07-1.209-0.397-1.778-0.977-0.723-0.73-0.713-1.617-0.185-2.136 0.472-0.462 1.247-0.433 2.243 0.066 1.648 0.822 3.128 1.013 4.341-0.176 1.27-1.256 1.311-2.967-0.278-4.577" style="fill:#0d603f"></path></g><g id="g80" transform="translate(126.05 1238.1)" style="fill:#0d603f;stroke-width:.19473"><path id="path82" d="m0 0c-0.579-0.041-1.576-0.359-2.402-0.981-1.566-1.181-2.46-3.442-0.884-5.537 1.551-2.071 3.943-1.884 5.554-0.677 0.953 0.72 1.552 1.485 1.832 2.165l0.627-1.357c-0.306-0.641-0.777-1.192-1.808-1.964-2.017-1.519-5.379-1.832-7.434 0.908-2.086 2.774-0.812 5.911 1.187 7.411 1.101 0.83 2.056 1.154 2.749 1.245z" style="fill:#0d603f"></path></g><g id="g84" transform="translate(137.99 1235.2)" style="fill:#0d603f;stroke-width:.19473"><path id="path86" d="m0 0-1.993 3.897-4.594-2.358 1.996-3.896-1.356-0.695-4.57 8.911 1.354 0.696 1.976-3.857 4.596 2.357-1.975 3.855 1.353 0.697 4.568-8.913z" style="fill:#0d603f"></path></g><g id="g88" transform="translate(150.54 1239.3)" style="fill:#0d603f;stroke-width:.19473"><path id="path90" d="m0 0-1.157 3.118c-0.424 1.132-0.807 2.187-1.178 3.289l-0.026-7e-3c-0.193-1.081-0.411-2.244-0.663-3.422l-0.853-4.12-0.55-0.15-2.842 3.08c-0.882 0.963-1.696 1.861-2.31 2.609l-0.03-9e-3c0.241-1.174 0.467-2.365 0.662-3.433l0.59-3.239-1.304-0.357-1.804 9.889 0.907 0.25 3.516-3.811c0.86-0.934 1.636-1.798 2.308-2.605l0.03 9e-3c0.146 1.015 0.357 2.146 0.63 3.424l1.063 5.042 0.906 0.25 3.503-9.425z" style="fill:#0d603f"></path></g><g id="g92" transform="translate(154.15 1239.7)" style="fill:#0d603f;stroke-width:.19473"><path id="path94" d="m0 0-1.082 9.957 1.511 0.167 1.087-9.961z" style="fill:#0d603f"></path></g><g id="g96" transform="translate(161.4 1248.9)" style="fill:#0d603f;stroke-width:.19473"><path id="path98" d="m0 0-1.305 0.036-0.208-7.44 1.305-0.035c2.261-0.062 4.157 1.06 4.228 3.602 0.075 2.542-1.76 3.772-4.02 3.837m0.021-8.733-3.078 0.085 0.289 10.015 3.07-0.089c2.796-0.075 5.367-1.925 5.275-5.159-0.091-3.231-2.765-4.931-5.556-4.852" style="fill:#0d603f"></path></g><g id="g100" transform="translate(172.91 1247.7)" style="fill:#0d603f;stroke-width:.19473"><path id="path102" d="m0 0-1.552-8.574-1.5 0.275 1.553 8.568-3.165 0.576 0.234 1.281 7.83-1.421-0.23-1.282z" style="fill:#0d603f"></path></g><g id="g104" transform="translate(181.74 1235.8)" style="fill:#0d603f;stroke-width:.19473"><path id="path106" d="m0 0c-0.999 0.423-1.786 1.111-2.125 1.63l0.326 1.666c0.624-0.994 1.383-1.693 2.385-2.113 1.023-0.435 1.95-0.144 2.31 0.707 0.331 0.797 0.069 1.538-0.892 2.374-1.418 1.231-1.897 2.522-1.355 3.795 0.55 1.283 2.018 2.11 3.984 1.276 0.91-0.384 1.555-0.997 1.779-1.382l-0.757-1.043c-0.22 0.368-0.818 0.979-1.57 1.295-0.944 0.397-1.762 0.066-2.046-0.614-0.263-0.609 0.054-1.321 0.879-2.063 1.37-1.228 2.094-2.54 1.431-4.1-0.7-1.647-2.271-2.31-4.349-1.428" style="fill:#0d603f"></path></g><g id="g108" transform="translate(193.58 1239.7)" style="fill:#0d603f;stroke-width:.19473"><path id="path110" d="m0 0-4.324-7.565-1.321 0.755 4.326 7.57-2.801 1.595 0.648 1.13 6.909-3.95-0.643-1.129z" style="fill:#0d603f"></path></g><g id="g112" transform="translate(193.02 1229.7)" style="fill:#0d603f;stroke-width:.19473"><path id="path114" d="m0 0 5.982 8.03 1.216-0.909-5.974-8.032z" style="fill:#0d603f"></path></g><g id="g116" transform="translate(203.11 1232.7)" style="fill:#0d603f;stroke-width:.19473"><path id="path118" d="m0 0-2.044-2.234 2.502-2.29-0.872-0.96-2.51 2.287-2.952-3.234-1.126 1.029 6.759 7.393 4.088-3.741-0.875-0.962z" style="fill:#0d603f"></path></g><g id="g120" transform="translate(210.33 1225.1)" style="fill:#0d603f;stroke-width:.19473"><path id="path122" d="m0 0-6.724-5.544-0.97 1.177 6.723 5.541-2.043 2.483 1.006 0.831 5.06-6.142-1.003-0.829z" style="fill:#0d603f"></path></g><g id="g124" transform="translate(209.62 1210.4)" style="fill:#0d603f;stroke-width:.19473"><path id="path126" d="m0 0 0.799 0.556c-1.133 0.232-1.967 1.068-2.555 2.074-1.174 2.023-0.821 4.063 1.052 5.153l5.789 3.376 0.771-1.313-5.605-3.268c-1.155-0.671-1.687-1.817-0.722-3.457 0.918-1.588 2.379-1.754 3.408-1.152l5.602 3.264 0.768-1.318-8.652-5.041z" style="fill:#0d603f"></path></g><g id="g128" transform="translate(213.71 1199.4)" style="fill:#0d603f;stroke-width:.19473"><path id="path130" d="m0 0 3.019 5.667c0.617 1.178 1.322 2.452 1.945 3.47l-0.022 0.024c-0.846-0.331-1.519-0.561-2.213-0.802l-4.819-1.674-0.501 1.437 9.456 3.287 0.347-0.995-2.7-4.977c-0.625-1.13-1.302-2.379-1.955-3.419l0.021-0.024c0.716 0.28 1.505 0.554 2.202 0.8l4.538 1.572 0.492-1.441-9.655-3.354z" style="fill:#0d603f"></path></g><g id="g132" transform="translate(215.04 1192.1)" style="fill:#0d603f;stroke-width:.19473"><path id="path134" d="m0 0c-0.378 2.672 1.024 5.689 4.382 6.165 3.431 0.48 5.567-2.153 5.91-4.628 0.183-1.366 0.016-2.515-0.343-3.31l-1.347 0.096c0.366 0.796 0.554 1.821 0.409 2.862-0.278 1.943-1.842 3.817-4.434 3.451-2.566-0.361-3.544-2.525-3.262-4.547 0.132-0.916 0.415-1.605 0.806-2.027l2.075 0.292-0.322 2.286 1.209 0.169 0.519-3.715-4.02-0.566c-0.903 0.841-1.378 1.997-1.582 3.472" style="fill:#0d603f"></path></g></g><g id="g136" transform="translate(150.07 1123.7)" style="fill:#8eb83b;stroke-width:.19473"><path id="path138" d="m0 0c-27.192 4.684-48.476 26.83-51.864 54.44h-2.193c3.416-28.805 25.662-51.929 54.057-56.65z" style="fill:#8eb83b"></path></g><g id="g140" transform="translate(223.42 1178.2)" style="fill:#8eb83b;stroke-width:.19473"><path id="path142" d="m0 0c-3.38-27.539-24.576-49.65-51.67-54.405l0.154-2.186c28.221 4.857 50.305 27.9 53.702 56.591z" style="fill:#8eb83b"></path></g></g></g></g></svg> 